<?xml version="1.0" standalone="no"?>
<!DOCTYPE svg PUBLIC "-//W3C//DTD SVG 20010904//EN"
 "http://www.w3.org/TR/2001/REC-SVG-20010904/DTD/svg10.dtd">
<svg version="1.0" xmlns="http://www.w3.org/2000/svg"
 width="900.000000pt" height="900.000000pt" viewBox="0 0 900.000000 900.000000"
 preserveAspectRatio="xMidYMid meet">
<metadata>
Created by potrace 1.15, written by Peter Selinger 2001-2017
</metadata>
<g transform="translate(0.000000,900.000000) scale(0.100000,-0.100000)"
fill="#000000" stroke="none">
<path d="M1831 6874 c-247 -53 -411 -290 -411 -594 0 -111 17 -186 65 -287 84
-179 281 -413 464 -552 42 -32 357 -253 701 -491 344 -238 743 -517 887 -619
522 -370 632 -439 786 -492 67 -23 99 -29 173 -29 192 0 345 77 804 405 102
72 320 226 485 340 165 115 498 345 740 513 544 378 568 395 673 496 150 144
267 308 326 460 78 196 78 415 0 568 -39 76 -153 190 -234 232 -133 70 69 66
-2800 65 -2181 0 -2605 -3 -2659 -15z"/>
<path d="M1490 4065 l0 -1320 765 765 c421 421 765 767 765 770 -1 6 -188 135
-1100 758 -181 123 -255 180 -348 269 l-82 78 0 -1320z"/>
<path d="M7435 5312 c-115 -110 -189 -165 -655 -482 -519 -354 -770 -527 -787
-544 -10 -9 157 -181 752 -776 l765 -765 0 1318 c0 724 -1 1317 -2 1317 -2 0
-34 -31 -73 -68z"/>
<path d="M2476 3121 c-507 -507 -866 -873 -862 -880 13 -21 141 -90 201 -108
57 -17 175 -18 2685 -18 l2625 0 70 22 c67 21 195 94 195 110 0 9 -1732 1743
-1741 1743 -4 0 -104 -69 -222 -154 -273 -195 -387 -259 -603 -341 -233 -88
-456 -80 -711 27 -212 88 -304 143 -594 354 -86 63 -160 114 -165 114 -5 0
-400 -391 -878 -869z"/>
</g>
</svg>
