<?xml version="1.0" standalone="no"?>
<!DOCTYPE svg PUBLIC "-//W3C//DTD SVG 20010904//EN"
 "http://www.w3.org/TR/2001/REC-SVG-20010904/DTD/svg10.dtd">
<svg version="1.0" xmlns="http://www.w3.org/2000/svg"
 width="512.000000pt" height="512.000000pt" viewBox="0 0 512.000000 512.000000"
 preserveAspectRatio="xMidYMid meet">
<metadata>
Created by potrace 1.15, written by Peter Selinger 2001-2017
</metadata>
<g transform="translate(0.000000,512.000000) scale(0.100000,-0.100000)"
fill="#000000" stroke="none">
<path d="M1210 4170 c-114 -42 -208 -129 -262 -245 l-23 -50 0 -1320 0 -1320
33 -68 c65 -132 193 -226 337 -247 40 -5 324 -10 658 -10 l587 0 0 193 c0 105
3 371 7 589 l6 397 -172 3 c-228 4 -211 -17 -211 259 0 270 -17 249 205 249
l165 0 0 188 c0 103 5 227 10 276 27 230 133 396 310 486 107 54 156 62 407
67 l232 5 25 -25 c26 -26 26 -27 26 -200 0 -237 11 -224 -198 -229 -144 -3
-161 -5 -207 -28 -40 -20 -55 -35 -75 -75 -24 -48 -25 -60 -29 -257 l-3 -208
244 0 c233 0 246 -1 263 -20 11 -12 18 -34 17 -55 -3 -72 -44 -380 -53 -398
-17 -31 -56 -37 -258 -37 l-198 0 -6 -257 c-4 -141 -7 -406 -7 -590 l0 -333
353 0 c193 0 384 5 422 10 193 28 347 182 375 375 13 95 13 2425 0 2520 -21
144 -115 272 -247 337 l-68 33 -1305 2 c-1279 2 -1306 2 -1360 -17z"/>
</g>
</svg>
