<?xml version="1.0" standalone="no"?>
<!DOCTYPE svg PUBLIC "-//W3C//DTD SVG 20010904//EN"
 "http://www.w3.org/TR/2001/REC-SVG-20010904/DTD/svg10.dtd">
<svg version="1.0" xmlns="http://www.w3.org/2000/svg"
 width="225.000000pt" height="225.000000pt" viewBox="0 0 225.000000 225.000000"
 preserveAspectRatio="xMidYMid meet">
<metadata>
Created by potrace 1.15, written by Peter Selinger 2001-2017
</metadata>
<g transform="translate(0.000000,225.000000) scale(0.100000,-0.100000)"
fill="#000000" stroke="none">
<path d="M1020 2244 c-267 -31 -490 -136 -678 -318 -168 -162 -281 -376 -323
-608 -19 -104 -16 -314 5 -418 93 -447 456 -799 906 -881 101 -18 325 -16 417
5 228 50 424 158 579 318 281 289 385 685 283 1073 -103 396 -439 718 -841
806 -84 18 -278 31 -348 23z m367 -79 c310 -78 569 -294 708 -588 201 -424
100 -924 -250 -1244 -364 -334 -897 -373 -1322 -97 -72 47 -237 211 -285 284
-59 90 -115 210 -143 306 -182 627 238 1271 890 1364 101 15 292 3 402 -25z"/>
<path d="M987 1980 c-341 -62 -609 -305 -698 -636 -30 -108 -32 -326 -5 -428
44 -163 116 -293 228 -405 136 -138 369 -254 392 -195 3 9 6 50 6 92 l0 77
-71 -3 c-124 -6 -176 26 -233 142 -16 33 -46 72 -72 93 -52 44 -56 63 -14 63
46 0 85 -25 131 -83 54 -69 101 -97 159 -96 76 2 90 10 110 62 10 27 23 54 29
60 7 10 -6 16 -56 25 -133 25 -225 88 -272 185 -71 144 -68 315 7 426 26 39
28 46 19 87 -7 31 -7 64 2 115 l13 72 50 -6 c30 -4 79 -22 122 -45 l73 -39 69
13 c89 17 212 17 293 0 l65 -13 76 39 c42 22 97 42 122 45 l45 5 13 -52 c8
-32 10 -80 7 -121 -5 -58 -3 -72 14 -93 51 -64 71 -162 57 -279 -21 -193 -128
-304 -325 -341 -37 -6 -62 -15 -56 -19 6 -4 19 -24 29 -44 15 -31 19 -71 24
-207 6 -205 5 -203 110 -162 189 74 365 245 455 440 55 118 78 229 77 376 0
152 -21 244 -87 377 -145 294 -414 468 -740 478 -66 2 -142 0 -168 -5z m136
-112 c5 -55 1 -228 -6 -234 -1 -1 -47 -8 -102 -14 l-100 -11 -63 31 c-74 36
-156 56 -195 46 -15 -3 -33 -19 -41 -34 -21 -41 -39 -150 -32 -197 5 -33 1
-50 -23 -96 -83 -152 -55 -411 57 -526 33 -33 90 -83 97 -83 2 -1 20 -7 38
-15 18 -8 52 -20 75 -27 23 -7 42 -15 42 -18 -1 -32 -81 -44 -119 -18 -11 8
-34 33 -50 55 -56 77 -140 121 -206 109 -45 -9 -65 -30 -65 -69 0 -26 11 -43
59 -89 36 -34 62 -68 66 -87 9 -42 76 -115 130 -140 25 -12 72 -24 105 -28 58
-6 60 -7 60 -35 0 -35 -10 -33 -103 13 -192 96 -338 274 -408 499 -21 65 -24
95 -24 220 1 159 14 218 77 350 47 98 84 147 176 237 68 66 105 92 186 133
111 57 220 88 307 89 l56 1 6 -62z"/>
</g>
</svg>
