<?xml version="1.0" standalone="no"?>
<!DOCTYPE svg PUBLIC "-//W3C//DTD SVG 20010904//EN"
 "http://www.w3.org/TR/2001/REC-SVG-20010904/DTD/svg10.dtd">
<svg version="1.0" xmlns="http://www.w3.org/2000/svg"
 width="260.000000pt" height="260.000000pt" viewBox="0 0 260.000000 260.000000"
 preserveAspectRatio="xMidYMid meet">
<metadata>
Created by potrace 1.15, written by Peter Selinger 2001-2017
</metadata>
<g transform="translate(0.000000,260.000000) scale(0.100000,-0.100000)"
fill="#000000" stroke="none">
<path d="M621 2589 c-303 -39 -539 -259 -601 -559 -18 -88 -20 -139 -20 -721
0 -681 3 -720 57 -859 86 -218 285 -382 523 -430 88 -18 141 -20 718 -20 672
0 689 1 845 55 241 84 407 298 447 573 8 52 10 282 8 717 -4 622 -4 642 -26
718 -75 269 -280 461 -552 517 -89 18 -137 20 -715 19 -341 -1 -649 -5 -684
-10z m1327 -239 c193 -32 323 -139 390 -321 l27 -74 0 -635 c0 -580 -2 -641
-18 -700 -52 -189 -153 -295 -337 -356 -50 -17 -109 -19 -663 -22 -672 -3
-721 0 -842 57 -86 40 -168 118 -205 195 -59 125 -61 157 -58 846 4 673 2 645
57 762 28 58 89 129 145 167 48 33 141 69 211 80 74 13 1217 13 1293 1z"/>
<path d="M1924 2121 c-53 -32 -74 -68 -74 -126 0 -161 210 -214 280 -70 26 53
25 81 -2 135 -39 74 -135 103 -204 61z"/>
<path d="M1222 1968 c-219 -23 -417 -160 -515 -357 -60 -120 -81 -216 -74
-340 20 -360 303 -631 662 -633 161 -1 283 40 414 138 197 148 299 420 247
660 -75 345 -385 570 -734 532z m258 -275 c184 -90 286 -301 236 -488 -39
-147 -142 -259 -281 -305 -99 -33 -225 -26 -316 18 -185 89 -284 294 -234 485
39 149 134 255 276 307 44 17 73 20 154 17 88 -3 108 -7 165 -34z"/>
</g>
</svg>
