<?xml version="1.0" standalone="no"?>
<!DOCTYPE svg PUBLIC "-//W3C//DTD SVG 20010904//EN"
 "http://www.w3.org/TR/2001/REC-SVG-20010904/DTD/svg10.dtd">
<svg version="1.0" xmlns="http://www.w3.org/2000/svg"
 width="2133.000000pt" height="2133.000000pt" viewBox="0 0 2133.000000 2133.000000"
 preserveAspectRatio="xMidYMid meet">
<metadata>
Created by potrace 1.15, written by Peter Selinger 2001-2017
</metadata>
<g transform="translate(0.000000,2133.000000) scale(0.100000,-0.100000)"
fill="#000000" stroke="none">
<path d="M10055 21319 c-2875 -168 -5529 -1466 -7423 -3629 -1405 -1605 -2301
-3604 -2556 -5705 -58 -476 -76 -792 -76 -1320 0 -528 18 -844 76 -1320 373
-3068 2093 -5847 4684 -7570 1591 -1058 3393 -1655 5324 -1765 230 -13 932
-13 1162 0 1322 76 2556 371 3744 897 2413 1069 4364 3020 5433 5433 526 1188
821 2422 897 3744 13 230 13 932 0 1162 -76 1322 -371 2556 -897 3744 -1069
2413 -3020 4364 -5433 5433 -1188 526 -2422 821 -3744 897 -206 12 -984 11
-1191 -1z m1000 -1669 c1956 -91 3792 -790 5290 -2015 457 -373 917 -833 1290
-1290 1225 -1498 1924 -3334 2015 -5290 101 -2185 -623 -4368 -2015 -6070
-373 -457 -833 -917 -1290 -1290 -1498 -1225 -3334 -1924 -5290 -2015 -2185
-101 -4368 623 -6070 2015 -457 373 -917 833 -1290 1290 -1225 1498 -1924
3334 -2015 5290 -101 2185 623 4368 2015 6070 373 457 833 917 1290 1290 976
798 2128 1389 3343 1715 884 238 1829 341 2727 300z"/>
<path d="M12558 15329 c-388 -30 -794 -190 -1120 -441 -112 -87 -291 -263
-378 -373 -279 -353 -460 -789 -516 -1245 -27 -226 -9 -678 32 -814 6 -18 1
-19 -117 -12 -1696 94 -3461 1026 -4451 2349 -44 59 -82 107 -84 107 -13 0
-127 -260 -168 -385 -81 -242 -116 -443 -123 -711 -6 -232 5 -372 48 -587 111
-559 431 -1105 816 -1395 l77 -57 -65 -3 c-35 -2 -116 2 -179 8 -279 27 -506
104 -645 221 l-50 41 -3 -103 c-2 -57 2 -153 8 -213 92 -899 592 -1578 1405
-1909 61 -25 143 -55 183 -68 39 -13 72 -26 72 -30 0 -13 -110 -50 -210 -72
-116 -25 -408 -29 -568 -8 -57 7 -106 11 -109 7 -3 -3 0 -39 7 -78 51 -286
241 -611 521 -889 375 -373 869 -612 1317 -637 l114 -7 -94 -94 c-408 -410
-1063 -739 -1723 -865 -383 -73 -807 -80 -1187 -20 -29 5 -39 4 -34 -4 9 -15
259 -167 422 -258 1473 -816 3179 -1009 4745 -535 754 228 1462 614 2099 1144
186 155 601 570 757 757 761 913 1258 1988 1472 3180 76 426 101 715 108 1240
l5 426 102 79 c231 182 552 524 743 791 91 127 218 333 210 340 -3 3 -31 -8
-63 -24 -172 -86 -472 -194 -709 -255 -150 -39 -367 -80 -391 -75 -9 2 10 21
47 48 87 63 249 227 353 356 129 161 231 319 322 499 73 144 154 358 141 371
-2 3 -36 -15 -75 -40 -330 -214 -1018 -476 -1248 -476 -46 0 -49 2 -148 98
-384 373 -839 583 -1346 622 -148 11 -166 11 -322 -1z"/>
</g>
</svg>
